# xmcd
#
# Track frame offsets:
#	150
#	11592
#	25982
#	47031
#	70283
#
# Disc length: 1207 seconds
#
# Revision: 1
# Processed by: cddbd v1.5.1PL0 Copyright (c) Steve Scherf et al.
# Submitted via: EasyCDDAExtractor 7.0.5.3
#
DISCID=3b04b505
DTITLE=Jake´s Blues Band - Well, It Mus Be Time ...
DYEAR=1995
DGENRE=Blues
TTITLE0=Shuffle
TTITLE1=Well, It Must Be Time ...
TTITLE2=Rainy Day
TTITLE3=Voodoo Chile
TTITLE4=Riviera Paradise
EXTD=
EXTT0=
EXTT1=
EXTT2=
EXTT3=
EXTT4=
PLAYORDER=
